# xmcd
#
# Track frame offsets: 
#        150
#        20155
#        39352
#        72087
#        94980
#        112230
#        130307
#        151262
#        175767
#        199462
#
# Disc length: 2968 seconds
#
# Revision: 5
# Processed by: cddbd v1.4PL0 Copyright (c) Steve Scherf et al.
# Submitted via: ExactAudioCopy v0.90b2
#
DISCID=8d0b960a
DTITLE=Robert Cray - I Was Warned
DYEAR=1992
DGENRE=Blues
TTITLE0=Just a Loser
TTITLE1=I'm a Good Man
TTITLE2=I Was Warned
TTITLE3=The Price I Pay
TTITLE4=Won The Battle
TTITLE5=On The Road Down
TTITLE6=A Whole Lotta Pride
TTITLE7=A Picture of a Broken Heart
TTITLE8=He Don't Live Here Anymore
TTITLE9=Our Last Time
EXTD=
EXTT0=
EXTT1=
EXTT2=
EXTT3=
EXTT4=
EXTT5=
EXTT6=
EXTT7=
EXTT8=
EXTT9=
PLAYORDER=
